<svg width="20" height="31" viewBox="0 0 20 31" fill="none" xmlns="http://www.w3.org/2000/svg">
<path d="M19.7177 3.37258C19.4536 2.96429 19.0679 2.95256 18.6283 2.9392C18.5785 2.93769 18.528 2.93615 18.4769 2.93402C18.438 2.93221 18.3951 2.93291 18.3502 2.93363C18.1719 2.93652 17.9634 2.93991 17.8583 2.78866C17.7366 2.61331 17.7481 2.27445 17.7576 1.9947C17.7607 1.9063 17.7635 1.82376 17.7618 1.75419C17.7447 1.10434 17.709 0.414032 17.4605 0.183263C17.2732 0.0101199 16.7127 0.0341065 16.1958 0.0562278C16.0283 0.063399 15.8653 0.0703742 15.7211 0.0703742H4.71902C4.4975 0.0703742 4.26529 0.0521613 4.03714 0.0342662C3.59258 -0.000603263 3.1634 -0.0342661 2.85862 0.0703742C2.41631 0.222979 2.38636 1.02489 2.35816 1.78L2.35664 1.82063C2.33296 2.44401 2.17996 2.92502 1.67288 2.87657C1.08311 2.82113 0.496246 2.80365 0.229591 3.34261C-0.0853353 3.98029 -0.0203852 4.64781 0.0959502 5.84342C0.112568 6.01421 0.130234 6.19578 0.147992 6.38957H19.8878C19.899 6.24792 19.9111 6.10809 19.9229 5.97052C20.0153 4.89484 20.0959 3.9576 19.7177 3.37258Z" fill="#8047F8"/>
<path fill-rule="evenodd" clip-rule="evenodd" d="M1.68527 7.57538C1.99356 11.7885 2.29849 16.0064 2.60343 20.2244L2.60362 20.2269C2.76919 22.5172 2.93476 24.8074 3.10087 27.0969H3.73072C3.77364 27.4553 3.82275 27.8977 3.87452 28.3642C3.97963 29.3111 4.09574 30.3572 4.19336 31H4.26302C4.90457 30.763 9.33971 28.8488 9.3417 21.2281C9.34088 21.2064 9.3416 21.1847 9.34383 21.1631H8.2481C8.19506 21.1626 8.14364 21.1447 8.10177 21.1122C8.05989 21.0797 8.02988 21.0343 8.01633 20.9831C7.90956 20.7168 7.82346 20.4427 7.75881 20.1632C7.11421 20.5308 6.60232 21.0921 6.2961 21.7671C6.00542 21.0758 5.96737 20.3044 6.18861 19.5879C6.40984 18.8714 6.87629 18.2553 7.50645 17.8472C7.51457 15.6235 8.33915 13.4798 9.82413 11.8221L9.8473 11.8015C9.89046 11.7638 9.94572 11.7429 10.003 11.7424C10.0362 11.7427 10.0689 11.7498 10.0991 11.7634C10.1298 11.7771 10.1571 11.7971 10.1795 11.8221C11.6818 13.4821 12.5021 15.6463 12.4766 17.8832C13.1185 18.2799 13.5944 18.8956 13.8161 19.616C14.0377 20.3364 13.99 21.1126 13.6818 21.8005C13.3772 21.1244 12.8649 20.5626 12.2191 20.1966C12.1796 20.4675 12.107 20.7325 12.0027 20.9857C11.9667 21.0937 11.8946 21.1631 11.8225 21.1631H10.6539C10.6558 21.176 10.6571 21.189 10.6578 21.202L10.6583 21.205V21.2113C10.6587 21.2225 10.6587 21.2338 10.6583 21.245C10.6743 29.0845 15.3898 30.8639 15.7873 31H15.9233C15.958 30.3826 16.071 29.5305 16.1811 28.6999C16.257 28.1275 16.3316 27.5652 16.3783 27.0969H17.0154C17.2193 24.213 17.4291 21.3372 17.6388 18.4614L17.6389 18.4598L17.639 18.459C17.9073 14.7805 18.1756 11.1018 18.4317 7.40605H1.72607C1.67798 7.41554 1.68126 7.49496 1.68527 7.57538ZM10.003 11.7424L10.0018 11.7424H10.0044L10.003 11.7424Z" fill="#8047F8"/>
</svg>
